<?xml version="1.0" standalone="no"?>
<!DOCTYPE svg PUBLIC "-//W3C//DTD SVG 20010904//EN"
 "http://www.w3.org/TR/2001/REC-SVG-20010904/DTD/svg10.dtd">
<svg version="1.0" xmlns="http://www.w3.org/2000/svg"
 width="42.000000pt" height="42.000000pt" viewBox="0 0 42.000000 42.000000"
 preserveAspectRatio="xMidYMid meet">

<g transform="translate(0.000000,42.000000) scale(0.100000,-0.100000)"
fill="#000000" stroke="none">
<path d="M230 300 c-24 -8 -23 -8 8 -9 20 -1 31 3 27 9 -3 6 -7 10 -8 9 -1 -1
-13 -5 -27 -9z"/>
<path d="M338 303 c6 -2 18 -2 25 0 6 3 1 5 -13 5 -14 0 -19 -2 -12 -5z"/>
<path d="M80 270 c20 -13 47 -13 55 0 4 6 -9 10 -32 10 -28 0 -34 -3 -23 -10z"/>
<path d="M400 270 c0 -5 -22 -10 -50 -10 -27 0 -50 -4 -50 -10 0 -5 -13 -10
-29 -10 -50 0 -91 -12 -91 -27 0 -11 -15 -13 -72 -11 -62 3 -73 6 -70 20 2 12
-3 15 -19 11 -15 -4 -17 -8 -7 -14 10 -6 10 -11 0 -21 -6 -6 -12 -30 -12 -51
0 -38 1 -39 27 -32 55 14 125 17 136 6 6 -6 19 -11 29 -11 14 0 18 8 18 39 l0
39 35 -8 c20 -4 42 -13 50 -20 20 -17 35 -4 35 30 0 27 1 28 38 19 53 -12 53
-13 50 31 -2 22 -6 40 -10 40 -5 0 -8 -4 -8 -10z m-95 -60 c-3 -5 -12 -10 -18
-10 -7 0 -6 4 3 10 19 12 23 12 15 0z m-260 -40 c3 -5 2 -10 -4 -10 -5 0 -13
5 -16 10 -3 6 -2 10 4 10 5 0 13 -4 16 -10z m150 0 c-3 -5 -14 -10 -23 -10
-15 0 -15 2 -2 10 20 13 33 13 25 0z"/>
</g>
</svg>
